# xmcd CD database file
#
# Track frame offsets:
#	150
#	20785
#	46861
#	61216
#
# Disc length: 860 seconds
#
# Revision: 0
# Processed by: cddbd v1.4PL0 Copyright (c) Steve Scherf et al.
# Submitted via: CDex 1.50Beta7
#
DISCID=2d035a04
DTITLE=Jake Blair Band - Boys of Blues
DYEAR=1900
DGENRE=Blues
TTITLE0=Blast
TTITLE1=Some Blues
TTITLE2=Dreams
TTITLE3=Goofin'
EXTD=
EXTT0=
EXTT1=
EXTT2=
EXTT3=
PLAYORDER=
